<?xml version="1.0" encoding="iso-8859-1"?>
<!-- Generator: Adobe Illustrator 18.1.1, SVG Export Plug-In . SVG Version: 6.00 Build 0)  -->
<!DOCTYPE svg PUBLIC "-//W3C//DTD SVG 1.1//EN" "http://www.w3.org/Graphics/SVG/1.1/DTD/svg11.dtd">
<svg version="1.1" id="&#x30EC;&#x30A4;&#x30E4;&#x30FC;_1_1_"
	 xmlns="http://www.w3.org/2000/svg" xmlns:xlink="http://www.w3.org/1999/xlink" x="0px" y="0px" viewBox="0 0 170 48"
	 style="enable-background:new 0 0 170 48;" xml:space="preserve">
<g>
	<path style="fill:#FFFFFF;" d="M154.67894,46.13257V1.86862h6.92752c6.03381,0,6.86481,3.44713,6.86481,7.17287V38.9593
		c0,3.72542-0.83099,7.17326-6.86481,7.17326H154.67894z M160.17317,5.30178c-0.80066,0-1.44867,0.64763-1.44867,1.44797v34.50089
		c0,0.80003,0.64801,1.44805,1.44867,1.44805h0.69691c2.69131,0,3.55563-0.83487,3.55563-3.43395V8.73454
		c0-2.59828-0.86432-3.43276-3.55563-3.43276H160.17317z"/>
	<path style="fill:#FFFFFF;" d="M23.7129,46.13257V1.86862h4.04475v18.96683c0,0.79995,0.64953,1.44726,1.44949,1.44726h3.17113
		c0.80004,0,1.44876-0.64731,1.44876-1.44726V1.86862h4.04714v44.26395h-4.04714V27.16265
		c0-0.79955-0.64873-1.44757-1.44876-1.44757h-3.17113c-0.79996,0-1.44949,0.64802-1.44949,1.44757v18.96992H23.7129z"/>
	<rect x="120.61477" y="1.86862" style="fill:#FFFFFF;" width="4.04554" height="44.26395"/>
	<path style="fill:#FFFFFF;" d="M136.17987,46.13257V1.86862h4.04475v39.38202c0,0.80003,0.64961,1.44805,1.44955,1.44805h5.23459
		v3.43387H136.17987z"/>
	<path style="fill:#FFFFFF;" d="M6.06418,46.13257V6.74975c0-0.80034-0.64651-1.44797-1.44726-1.44797H1.52873V1.86862h13.11874
		v3.43316h-3.08899c-0.80074,0-1.44646,0.64763-1.44646,1.44797v39.38282H6.06418z"/>
	<path style="fill:#FFFFFF;" d="M102.19714,46.5c-4.54624,0-7.05078-2.24252-7.05078-6.31442V1.86862h4.04476v37.0302
		c0,2.96032,0.88828,4.16802,3.06651,4.16802c2.54328,0,3.06573-1.66737,3.06573-4.16802V1.86862h4.04626v38.31696
		C109.36961,44.25748,106.82253,46.5,102.19714,46.5z"/>
	<path style="fill:#FFFFFF;" d="M84.6151,13.45486V8.48919c0-4.50632-2.48199-6.98919-6.98798-6.98919
		c-4.50594,0-6.98881,2.48287-6.98881,6.98919v30.22365c0,5.38572,2.34484,7.78716,7.60268,7.78716
		c1.99217,0,4.13778-0.45347,6.37411-1.34875V22.28271h-7.29343v3.43236h1.79992c0.80074,0,1.44878,0.64802,1.44878,1.44757
		v14.32136c0,0.67358-0.46429,1.25882-1.12238,1.41075c-0.48452,0.1124-1.02943,0.17208-1.57594,0.17208
		c-1.18984,0-3.18661-0.57357-3.18661-4.41448V31.3117v-2.62313v-5.08814v-6.23726V9.04149
		c0-1.91272,0.33408-4.10753,2.94167-4.10753c2.60764,0,2.94325,2.19482,2.94325,4.10753v4.41337H84.6151z"/>
	<path style="fill:#FFFFFF;" d="M49.39372,46.13257V1.86862h10.72969v3.43316h-5.23547c-0.79915,0-1.44718,0.64763-1.44718,1.44797
		v14.0857c0,0.79995,0.64803,1.44726,1.44718,1.44726h4.92693v3.43236h-4.92693c-0.79915,0-1.44718,0.64802-1.44718,1.44757v14.088
		c0,0.80003,0.64803,1.44805,1.44718,1.44805h5.23547v3.43387H49.39372z"/>
</g>
</svg>
